<?xml version="1.0" encoding="utf-8"?>
<!-- Generator: Adobe Illustrator 17.0.0, SVG Export Plug-In . SVG Version: 6.00 Build 0)  -->
<!DOCTYPE svg PUBLIC "-//W3C//DTD SVG 1.1//EN" "http://www.w3.org/Graphics/SVG/1.1/DTD/svg11.dtd">
<svg version="1.1" id="Layer_1" xmlns="http://www.w3.org/2000/svg" xmlns:xlink="http://www.w3.org/1999/xlink" x="0px" y="0px"
	 width="231.7px" height="83px" viewBox="0 0 231.7 83" style="enable-background:new 0 0 231.7 83;" xml:space="preserve">
<style type="text/css">
	.st0{fill:#FFFFFF;}
	.st1{fill:#EE3E46;}
	.st2{fill:#F37820;}
	.st3{opacity:0.5;}
</style>
<path class="st0" d="M54.1,39.6c-0.3,0.3-0.6,0.5-0.9,0.7c-0.3,0.2-0.6,0.2-1,0.3c-0.4,0-0.9,0-1.4,0c-0.5-0.1-1.1-0.1-1.6-0.2
	l-23.6-4l14.2,14.2c0.6,0.6,0.9,1.1,0.9,1.6c0,0.5-0.2,0.9-0.6,1.3c-0.4,0.4-0.8,0.6-1.3,0.6c-0.5,0-1.1-0.3-1.6-0.9L21.7,37.7
	c-0.7-0.7-1-1.2-1.1-1.5c-0.1-0.4-0.2-0.8,0-1.3c0.1-0.5,0.4-0.9,0.7-1.3c0.3-0.3,0.6-0.5,0.8-0.6c0.3-0.1,0.6-0.2,0.8-0.2
	c0.3,0,0.8,0,1.2,0.1c0.5,0.1,1.1,0.2,1.7,0.3l23.9,3.9L35.4,22.7c-0.6-0.6-0.9-1.2-0.9-1.6c0-0.3,0-0.7,0.6-1.2
	c0.5-0.5,1-0.6,1.3-0.6c0.5,0,1,0.3,1.6,0.9l15.9,15.9C55.5,37.8,55,38.8,54.1,39.6z"/>
<path class="st0" d="M38.3,63.4c-0.4,0.5-1.1,0.5-1.5,0.1L23.7,50.4c-0.4-0.4-0.3-1.1,0.1-1.5c0.4-0.5,1.1-0.5,1.5-0.1l12.4,12.4
	l9.4-9.4l-6.2-6.2c-0.4-0.4-0.3-1.1,0.1-1.5c0.5-0.4,1.1-0.5,1.5-0.1l6.9,6.9c0.4,0.4,0.3,1.1-0.1,1.5L38.3,63.4z"/>
<path class="st1" d="M19.1,44.3c-0.4,0.5-1.1,0.5-1.5,0.1l-6.9-6.9c-0.4-0.4-0.3-1.1,0.1-1.5l11.1-11.1c0.4-0.4,1.1-0.5,1.5-0.1
	c0.4,0.4,0.3,1.1-0.1,1.5L13,36.5l6.2,6.2C19.6,43.1,19.6,43.8,19.1,44.3z"/>
<path class="st0" d="M36.9,9.9c0.4-0.5,1.1-0.5,1.5-0.1l13.1,13.1c0.4,0.4,0.3,1.1-0.1,1.5c-0.4,0.5-1.1,0.5-1.5,0.1L37.4,12.1
	L28,21.6l6.2,6.2c0.4,0.4,0.3,1.1-0.1,1.5c-0.4,0.4-1.1,0.5-1.5,0.1l-6.9-6.9c-0.4-0.4-0.3-1.1,0.1-1.5L36.9,9.9z"/>
<path class="st2" d="M56,29c0.5-0.5,1.1-0.5,1.5-0.1l6.9,6.9c0.4,0.4,0.3,1.1-0.1,1.5L53.2,48.4c-0.5,0.4-1.1,0.5-1.5,0.1
	c-0.4-0.4-0.3-1.1,0.1-1.5l10.3-10.3l-6.2-6.2C55.5,30.2,55.5,29.5,56,29z"/>
<g>
	<path class="st0" d="M89,23.5c0.1,1.4,0.1,1.7,0.1,2v18.4h-4.2V16.5h5.2l8.7,18.9c-0.1-1.4-0.1-1.7-0.1-1.9v-17h4.2v27.3h-4.1
		L89,23.5z"/>
	<path class="st0" d="M111.3,30c0-6.5,3-14.3,10-14.3c7.1,0,10,7.9,10,14.5c0,6.5-2.9,14.5-10,14.5C114.1,44.7,111.3,36.5,111.3,30z
		 M115.4,30.5c0,4.8,1.2,10.8,5.8,10.8c4.7,0,5.8-6.3,5.8-11.1c0-4.9-1.2-11.1-5.8-11.1C116.6,19.1,115.4,25.5,115.4,30.5z"/>
	<path class="st0" d="M144.8,43.8l-9.2-27.2h4.5l7,21.8l7-21.8h4.3l-9.2,27.2H144.8z"/>
	<path class="st0" d="M175.5,35.2h-7.8l-2.8,8.6h-4.4l9-27.2h4.3l9,27.2h-4.4L175.5,35.2z M168.5,31.8h6.2l-3.1-10.2L168.5,31.8z"/>
	<path class="st0" d="M192.9,33.2v10.7h-4.2V16.6h4.2v11.6l9.2-11.6h4.6l-10.9,14l11.1,11.6v1.6h-4L192.9,33.2z"/>
</g>
<g class="st3">
	<path class="st0" d="M88.8,58.8c-0.3-1.4-0.7-2.9-1.1-4.6l-0.1,0.3l-1,4.3h-1l-1.5-6.2h1l1,4.4l1.1-4.4h0.9l1.1,4.4l1-4.4h1
		l-1.5,6.2H88.8z"/>
	<path class="st0" d="M97.3,52.6h3.4v0.8h-2.4v1.8h1.9V56h-1.9v2h2.5v0.8h-3.5V52.6z"/>
	<path class="st0" d="M107.3,58.7v-6.1h1.6c0.4,0,0.7,0,1,0.1c0.6,0.2,1,0.8,1,1.4c0,0.2-0.1,0.7-0.3,0.9c-0.1,0.1-0.3,0.3-0.5,0.4
		c0.8,0.2,1.1,0.8,1.1,1.5c0,1.2-1,2-2.3,2C108.4,59,107.5,58.8,107.3,58.7z M109,53.3h-0.7v1.8l0.6,0c0.6,0,1.1-0.3,1.1-1
		c0-0.4-0.2-0.6-0.4-0.7C109.5,53.4,109.2,53.3,109,53.3z M108.9,55.9h-0.6v2.2c0.2,0,0.5,0.1,0.7,0.1c0.8,0,1.4-0.4,1.4-1.2
		c0-0.4-0.1-0.7-0.4-0.9C109.8,56,109.4,55.9,108.9,55.9z"/>
	<path class="st0" d="M126,58.4l0.4-0.7c0.1,0.1,0.2,0.2,0.4,0.3c0.2,0.1,0.5,0.2,0.7,0.2c0.6,0,1-0.4,1-1c0-0.3-0.3-0.7-0.6-0.9
		l-1.1-0.7c-0.5-0.3-0.9-0.8-0.9-1.6c0-1.1,0.7-1.6,1.8-1.6c0.9,0,1.5,0.6,1.6,0.8l-0.6,0.5c-0.1-0.1-0.5-0.5-1-0.5
		c-0.5,0-0.9,0.3-0.9,0.8c0,0.5,0.3,0.8,0.7,1l1,0.6c0.6,0.4,1,0.9,1,1.7c0,1-0.9,1.7-1.9,1.7C126.8,59,126.1,58.5,126,58.4z"/>
	<path class="st0" d="M135.7,55.7c0-1.5,0.7-3.2,2.3-3.2c1.6,0,2.3,1.8,2.3,3.3c0,1.5-0.6,3.3-2.3,3.3
		C136.3,59,135.7,57.1,135.7,55.7z M136.6,55.8c0,1.1,0.3,2.4,1.3,2.4c1.1,0,1.3-1.4,1.3-2.5c0-1.1-0.3-2.5-1.3-2.5
		C136.9,53.2,136.6,54.6,136.6,55.8z"/>
	<path class="st0" d="M146.8,52.6h0.9V58h2.2v0.8h-3.1V52.6z"/>
	<path class="st0" d="M156,56.4v-3.8h0.9v3.8c0,0.9,0.2,1.8,1.1,1.8c0.9,0,1.1-0.8,1.1-1.8v-3.8h0.9v3.8c0,1.3-0.6,2.5-2.1,2.5
		C156.6,59,156,57.7,156,56.4z"/>
	<path class="st0" d="M168.8,58.8h-0.9v-5.4h-1.5v-0.8h4v0.8h-1.5V58.8z"/>
	<path class="st0" d="M176.6,52.6h1v6.2h-1V52.6z"/>
	<path class="st0" d="M184.2,55.7c0-1.5,0.7-3.2,2.3-3.2c1.6,0,2.3,1.8,2.3,3.3c0,1.5-0.6,3.3-2.3,3.3
		C184.8,59,184.2,57.1,184.2,55.7z M185.1,55.8c0,1.1,0.3,2.4,1.3,2.4c1.1,0,1.3-1.4,1.3-2.5c0-1.1-0.3-2.5-1.3-2.5
		C185.4,53.2,185.1,54.6,185.1,55.8z"/>
	<path class="st0" d="M196.3,54.2c0,0.3,0,0.4,0,0.4v4.2h-0.9v-6.2h1.2l2,4.3c0-0.3,0-0.4,0-0.4v-3.9h0.9v6.2h-0.9L196.3,54.2z"/>
	<path class="st0" d="M206.2,58.4l0.4-0.7c0.1,0.1,0.2,0.2,0.4,0.3c0.2,0.1,0.5,0.2,0.7,0.2c0.6,0,1-0.4,1-1c0-0.3-0.3-0.7-0.6-0.9
		l-1.1-0.7c-0.5-0.3-0.9-0.8-0.9-1.6c0-1.1,0.7-1.6,1.8-1.6c0.9,0,1.5,0.6,1.6,0.8l-0.6,0.5c-0.1-0.1-0.5-0.5-1-0.5
		c-0.5,0-0.9,0.3-0.9,0.8c0,0.5,0.3,0.8,0.7,1l1,0.6c0.6,0.4,1,0.9,1,1.7c0,1-0.9,1.7-1.9,1.7C207,59,206.3,58.5,206.2,58.4z"/>
</g>
</svg>
