<?xml version="1.0" encoding="utf-8"?>
<!-- Generator: Adobe Illustrator 17.0.0, SVG Export Plug-In . SVG Version: 6.00 Build 0)  -->
<!DOCTYPE svg PUBLIC "-//W3C//DTD SVG 1.1//EN" "http://www.w3.org/Graphics/SVG/1.1/DTD/svg11.dtd">
<svg version="1.1" id="Layer_1" xmlns="http://www.w3.org/2000/svg" xmlns:xlink="http://www.w3.org/1999/xlink" x="0px" y="0px"
	 width="62.2px" height="32.1px" viewBox="0 0 62.2 32.1" style="enable-background:new 0 0 62.2 32.1;" xml:space="preserve">
<style type="text/css">
	.st0{fill:#FFFFFF;}
</style>
<g>
	<path class="st0" d="M59.5,32c0.6,0.3,1.2,0.1,2.2,0.1c1.9-9-2.2-18.7-4.8-26.9c1.3-2.3-3-8.1-4.6-3.4c-0.7,1.9,2,8.4,1.5,11.4
		c-6.2-6.6-19.5-8.1-30.2-6.4C15.5,8,7,12.9,0.1,15.5c-0.3,1.1,0,2.8,0.8,3.6C7.2,18,15,12.6,24.2,10.8C37,8.3,56,12.1,54.7,24.5
		c-3.5-1.5-10.6-4.9-15-6.6c-1.1-0.4-1.9-1.3-2.8-1.1c-1.9,0.3-1.9,3.3-1.7,4.5C44.9,22.7,52.2,28.3,59.5,32z"/>
</g>
</svg>
